:SAMPLES-PER-SECOND 30
:FRAME-RANGE 1-663
:FULLY-SPECIFIED
:DEGREES
539
root  35.0416 38.2255 -108.241 175.677 5.48588 178.44
RightUpLeg  -8.29705 -2.69742 -8.37962
RightLeg  61.7339 0.36099 0.213539
RightFoot  0.606021 -1.59358 15.1869
RightToes  2.91037e-010 0 -3.6325e-017
Spine  6.3432 -2.7201 8.86051
Spine1  5.43384 0.695228 -17.4708
HEad  18.0206 29.293 -4.99914
LeftShoulder1  1.43575 -0.444581 -30.3033
LeftArm  15.5662 -15.4046 -34.7935
LeftForeArm  -10.2691 -53.6358 -16.171
LeftHand  0.131913 4.22367 -16.8098
RightShoulder  4.57732 5.7124 43.3821
RightArm  -2.97971 -12.8581 10.1761
RightForeArm  -13.8261 61.0576 22.2765
RightHand  0.667604 -2.05364 23.6812
LeftUpLeg  -14.9615 -0.908901 -12.9421
LeftLeg  19.9898 29.2701 9.60037
LeftFoot  -6.58577 -0.219171 6.22832
LeftToes  -4.9116e-011 5.71383e-011 -3.31847e-011
540
root  34.8787 38.269 -109.073 176.141 2.94279 177.923
RightUpLeg  -14.0083 1.84072 -9.56102
RightLeg  65.5023 -0.0882258 -0.82915
RightFoot  -0.481472 -1.19523 12.4934
RightToes  2.91037e-010 0 -3.6325e-017
Spine  5.25949 -3.25107 7.49154
Spine1  6.57273 -0.0476151 -16.485
HEad  18.2801 29.6605 -5.8094
LeftShoulder1  1.49726 -0.567076 -30.7263
LeftArm  16.1042 -16.0874 -35.1308
LeftForeArm  -10.5787 -52.7137 -15.6408
LeftHand  0.211851 3.71084 -16.8909
RightShoulder  4.77448 6.28149 42.5681
RightArm  -3.1517 -11.818 10.5577
RightForeArm  -14.4952 60.0694 21.3738
RightHand  0.685332 -1.98133 23.7528
LeftUpLeg  -13.593 -2.35708 -14.7232
LeftLeg  19.6697 28.286 9.81676
LeftFoot  -8.78023 -0.0668556 5.35269
LeftToes  -4.9116e-011 5.71383e-011 -3.31847e-011
541
root  34.6992 38.4307 -109.924 176.822 -0.230337 177.886
RightUpLeg  -18.6924 5.86394 -10.5864
RightLeg  64.778 -1.28316 -3.57868
RightFoot  -1.76411 -0.84491 9.91808
RightToes  2.91037e-010 0 -3.6325e-017
Spine  3.674 -3.86821 6.39266
Spine1  7.82192 -0.899998 -14.9347
HEad  18.9853 29.4014 -5.91125
LeftShoulder1  1.56854 -0.751142 -30.8136
LeftArm  17.1219 -17.0867 -36.1535
LeftForeArm  -11.4979 -51.1692 -14.8362
LeftHand  0.23502 3.54148 -16.699
RightShoulder  4.89346 6.45471 42.8881
RightArm  -3.0559 -10.3071 9.51035
RightForeArm  -15.6121 59.2919 20.7539
RightHand  0.697174 -1.89013 23.4996
LeftUpLeg  -11.5406 -3.30806 -15.8229
LeftLeg  17.7751 26.439 8.75915
LeftFoot  -10.548 0.031448 4.62269
LeftToes  -4.9116e-011 5.71383e-011 -3.31847e-011
542
root  34.5037 38.6469 -110.737 177.454 -3.82918 178.341
RightUpLeg  -22.1854 8.87693 -11.197
RightLeg  60.4585 -2.97741 -6.17006
RightFoot  -3.12069 -0.477776 6.3451
RightToes  2.91037e-010 0 -3.6325e-017
Spine  2.80292 -4.6266 5.53192
Spine1  8.19318 -2.05761 -12.6542
HEad  20.085 28.4683 -5.31323
LeftShoulder1  1.61261 -0.865538 -30.859
LeftArm  18.378 -18.0807 -37.2776
LeftForeArm  -12.4675 -49.43 -13.9977
LeftHand  0.300185 3.12068 -16.7496
RightShoulder  4.91619 6.548 42.674
RightArm  -3.86515 -9.93341 9.54794
RightForeArm  -15.5951 58.7515 20.2828
RightHand  0.715203 -1.7686 23.2525
LeftUpLeg  -9.09512 -3.55724 -16.0587
LeftLeg  15.104 23.7948 6.8914
LeftFoot  -11.6656 0.0819056 4.15025
LeftToes  -4.9116e-011 5.71383e-011 -3.31847e-011
543
root  34.3232 38.8158 -111.518 177.988 -7.95088 178.959
RightUpLeg  -24.2144 10.8486 -11.6048
RightLeg  52.8842 -4.96534 -7.37891
RightFoot  -3.80726 -0.450866 6.4459
RightToes  2.91037e-010 0 -3.6325e-017
Spine  2.19157 -5.45278 4.31313
Spine1  8.51112 -3.46156 -9.96992
HEad  20.8688 27.4808 -5.05254
LeftShoulder1  1.67923 -1.0217 -31.061
LeftArm  19.7842 -19.2885 -38.2009
LeftForeArm  -13.5362 -47.7221 -13.2459
LeftHand  0.346587 2.806 -16.6716
RightShoulder  4.76452 6.30141 42.3812
RightArm  -4.45716 -9.59585 9.71455
RightForeArm  -15.5767 58.1979 19.8179
RightHand  0.765981 -1.54301 23.3435
LeftUpLeg  -7.00039 -3.49657 -15.8779
LeftLeg  13.4363 19.8037 5.30716
LeftFoot  -12.4638 0.114505 4.03784
LeftToes  -4.9116e-011 5.71383e-011 -3.31847e-011
544
root  34.1025 38.9714 -112.287 178.469 -12.0664 179.712
RightUpLeg  -24.7233 11.2838 -11.6266
RightLeg  42.039 -6.04192 -6.08599
RightFoot  -2.35451 -0.637775 7.89836
RightToes  2.91037e-010 0 -3.6325e-017
Spine  1.68377 -6.12807 3.74399
Spine1  8.85287 -4.66183 -7.3873
HEad  21.2457 25.8872 -4.87431
LeftShoulder1  1.76225 -1.24661 -31.0545
LeftArm  21.5507 -20.7116 -39.4838
LeftForeArm  -14.5938 -45.7231 -12.4238
LeftHand  0.416967 2.35167 -16.7195
RightShoulder  4.58946 5.92802 42.4471
RightArm  -4.99929 -9.50977 9.64351
RightForeArm  -15.9333 57.7338 19.4686
RightHand  0.778572 -1.40059 22.8461
LeftUpLeg  -4.71819 -3.72062 -15.6681
LeftLeg  11.1606 16.5814 4.17218
LeftFoot  -12.5166 0.124858 4.83067
LeftToes  -4.9116e-011 5.71383e-011 -3.31847e-011
545
root  33.8744 39.0991 -113.115 178.796 -14.997 -179.543
RightUpLeg  -24.2579 10.6051 -10.6748
RightLeg  29.6973 -6.10648 -3.98291
RightFoot  -0.949737 -0.924944 10.0755
RightToes  2.91037e-010 0 -3.6325e-017
Spine  1.29816 -6.21889 3.50136
Spine1  9.23296 -5.14815 -5.44473
HEad  21.5487 23.8697 -4.50784
LeftShoulder1  1.81722 -1.42635 -30.8172
LeftArm  23.3345 -22.1026 -40.78
LeftForeArm  -15.8934 -43.8694 -11.738
LeftHand  0.434912 2.23295 -16.7134
RightShoulder  4.37277 5.42316 42.753
RightArm  -5.15867 -9.40205 9.54625
RightForeArm  -16.0955 57.1422 19.0175
RightHand  0.833032 -1.1588 22.96
LeftUpLeg  -2.63818 -3.332 -14.987
LeftLeg  9.44328 13.3288 3.06836
LeftFoot  -12.4238 0.128998 5.737
LeftToes  -4.9116e-011 5.71383e-011 -3.31847e-011
546
root  33.6041 39.1428 -114.018 178.816 -16.7795 -179.009
RightUpLeg  -22.9337 7.01603 -8.23618
RightLeg  17.7852 -2.93535 -1.25996
RightFoot  -0.353486 -1.16881 12.0852
RightToes  2.91037e-010 0 -3.6325e-017
Spine  1.28052 -6.03328 3.41243
Spine1  9.36226 -5.23378 -4.14786
HEad  21.8791 22.599 -4.18919
LeftShoulder1  1.84009 -1.51808 -30.5983
LeftArm  24.8346 -23.0368 -41.631
LeftForeArm  -16.6644 -42.1908 -11.136
LeftHand  0.480186 1.92888 -16.6773
RightShoulder  4.35997 5.31878 43.1566
RightArm  -4.64934 -9.14964 9.22007
RightForeArm  -16.6747 56.4367 18.5286
RightHand  0.888933 -0.864946 22.8266
LeftUpLeg  -0.632781 -2.60561 -14.3781
LeftLeg  8.48393 11.087 2.3121
LeftFoot  -12.3979 0.136783 6.73231
LeftToes  -4.9116e-011 5.71383e-011 -3.31847e-011
547
root  33.2993 39.0562 -115.031 178.511 -17.6789 -178.583
RightUpLeg  -21.0709 -2.02287 -3.35778
RightLeg  8.33008 6.38199 0.865163
RightFoot  0.66038 -1.75787 16.6575
RightToes  2.91037e-010 0 -3.6325e-017
Spine  1.42715 -5.63969 3.20049
Spine1  9.36909 -5.0573 -3.11462
HEad  22.3692 21.3318 -3.93576
LeftShoulder1  1.86374 -1.59362 -30.5193
LeftArm  26.1654 -23.6674 -41.8529
LeftForeArm  -17.7314 -40.6927 -10.649
LeftHand  0.535313 1.55861 -16.6418
RightShoulder  4.43774 5.47604 43.1558
RightArm  -3.86563 -8.89066 9.26944
RightForeArm  -17.3684 55.79 18.1101
RightHand  0.882929 -0.825232 22.4758
LeftUpLeg  0.936001 -1.30473 -13.642
LeftLeg  9.25871 9.5263 1.76772
LeftFoot  -13.3623 0.20574 7.09439
LeftToes  -4.9116e-011 5.71383e-011 -3.31847e-011
548
root  32.9127 38.84 -116.1 177.905 -18.7084 -178.452
RightUpLeg  -18.8048 -3.7757 -2.16337
RightLeg  2.86881 5.9653 2.86485
RightFoot  2.3294 -2.61479 21.7066
RightToes  2.91037e-010 0 -3.6325e-017
Spine  2.20929 -5.41348 2.96992
Spine1  8.86063 -5.03327 -2.22214
HEad  22.935 20.3492 -4.18814
LeftShoulder1  1.919 -1.72623 -30.6518
LeftArm  27.8523 -24.159 -41.6781
LeftForeArm  -19.2575 -39.0081 -10.1469
LeftHand  0.579474 1.2918 -16.7455
RightShoulder  4.42849 5.6282 42.2957
RightArm  -2.98065 -9.03761 10.4603
RightForeArm  -16.996 55.4464 17.8439
RightHand  0.899353 -0.696952 22.2419
LeftUpLeg  2.63673 -0.168104 -13.3138
LeftLeg  10.983 7.9181 1.40434
LeftFoot  -14.7331 0.330899 8.16503
LeftToes  -4.9116e-011 5.71383e-011 -3.31847e-011
549
root  32.4823 38.6175 -117.174 177.038 -19.4148 -177.916
RightUpLeg  -17.6156 -2.01708 -0.473079
RightLeg  3.75232 2.53143 2.2589
RightFoot  1.8868 -2.25888 19.4211
RightToes  2.91037e-010 0 -3.6325e-017
Spine  3.58459 -5.02329 3.61585
Spine1  7.90294 -4.89255 -1.17175
HEad  23.5632 19.5361 -4.68789
LeftShoulder1  1.94707 -1.78671 -30.7646
LeftArm  29.8193 -24.3475 -41.4759
LeftForeArm  -20.9798 -37.6301 -9.77868
LeftHand  0.611931 1.09331 -16.8036
RightShoulder  4.52915 5.81713 42.3845
RightArm  -1.3041 -8.25266 9.6769
RightForeArm  -18.0558 55.1305 17.6985
RightHand  0.88658 -0.681569 21.862
LeftUpLeg  4.48917 0.819426 -12.7893
LeftLeg  12.7715 6.99828 1.4711
LeftFoot  -16.3433 0.497721 9.12045
LeftToes  -4.9116e-011 5.71383e-011 -3.31847e-011
550
root  31.9905 38.4914 -118.157 175.807 -20.0245 -176.643
RightUpLeg  -17.606 -0.312224 1.74073
RightLeg  7.66611 3.09333 1.46747
RightFoot  7.83338 -1.44775 8.8745
RightToes  2.91037e-010 0 -3.6325e-017
Spine  5.75663 -4.71482 6.13068
Spine1  6.70028 -4.65996 -0.291896
HEad  23.635 18.4894 -5.60049
LeftShoulder1  1.99682 -1.88088 -31.0484
LeftArm  31.0884 -24.2783 -40.9852
LeftForeArm  -22.0163 -36.709 -9.53524
LeftHand  0.669203 0.798975 -17.1093
RightShoulder  4.55118 6.04449 41.5168
RightArm  -0.128374 -8.10747 9.98819
RightForeArm  -18.1287 55.1056 17.6864
RightHand  0.866293 -0.769477 21.7928
LeftUpLeg  6.35305 3.12392 -11.1443
LeftLeg  14.4984 5.08078 1.15253
LeftFoot  -17.5428 0.641891 9.87141
LeftToes  -4.9116e-011 5.71383e-011 -3.31847e-011
551
root  31.4399 38.2434 -119.08 175.025 -20.7374 -175.554
RightUpLeg  -19.4233 2.93644 2.49821
RightLeg  15.2542 0.218594 -0.198015
RightFoot  4.96683 -1.10704 7.95203
RightToes  2.91037e-010 0 -3.6325e-017
Spine  7.88551 -4.53471 9.10508
Spine1  5.32434 -4.17639 -0.164578
HEad  23.4777 17.2449 -6.73174
LeftShoulder1  2.0316 -1.87475 -31.7411
LeftArm  32.7746 -24.8825 -40.73
LeftForeArm  -23.3578 -35.4099 -9.1971
LeftHand  0.709967 0.601683 -17.3496
RightShoulder  4.7274 6.52565 41.0152
RightArm  0.439143 -7.86664 10.0546
RightForeArm  -18.1405 54.7517 17.4487
RightHand  0.895359 -0.60069 21.6908
LeftUpLeg  5.69123 7.82067 -9.05364
LeftLeg  20.556 0.626341 0.594502
LeftFoot  -19.3197 0.722617 8.67549
LeftToes  -4.9116e-011 5.71383e-011 -3.31847e-011
552
root  30.9509 37.9632 -119.925 175.435 -21.9198 -175.578
RightUpLeg  -21.5843 5.40702 1.54327
RightLeg  21.8828 -2.54016 -1.34081
RightFoot  0.778503 -0.968563 9.15499
RightToes  2.91037e-010 0 -3.6325e-017
Spine  8.646 -4.21441 9.32938
Spine1  5.45962 -4.16138 1.78096
HEad  22.7646 15.7582 -7.61625
LeftShoulder1  2.12108 -2.06037 -32.0921
LeftArm  33.4619 -25.5238 -41.2317
LeftForeArm  -25.2238 -33.5178 -8.72184
LeftHand  0.728752 0.510429 -17.4524
RightShoulder  5.32333 7.83334 40.836
RightArm  0.616214 -6.66009 9.98944
RightForeArm  -19.2534 53.1189 16.4789
RightHand  0.961834 -0.23047 21.5508
LeftUpLeg  1.09219 12.9333 -7.11214
LeftLeg  32.5259 -3.86814 -2.30085
LeftFoot  -17.9717 0.366861 4.4664
LeftToes  -4.9116e-011 5.71383e-011 -3.31847e-011
